<svg xmlns="http://www.w3.org/2000/svg" version="1.1" xmlns:xlink="http://www.w3.org/1999/xlink" xmlns:svgjs="http://svgjs.dev/svgjs" width="1440" height="560" preserveAspectRatio="none" viewBox="0 0 1440 560"><g mask="url(&quot;#SvgjsMask1526&quot;)" fill="none"><rect width="1440" height="560" x="0" y="0" fill="url(&quot;#SvgjsLinearGradient1527&quot;)"></rect><path d="M94 397L450 753" stroke-width="10" stroke="url(&quot;#SvgjsLinearGradient1528&quot;)" stroke-linecap="round" class="TopLeft"></path><path d="M702 396L1013 707" stroke-width="6" stroke="url(&quot;#SvgjsLinearGradient1528&quot;)" stroke-linecap="round" class="TopLeft"></path><path d="M797 351L1062 616" stroke-width="10" stroke="url(&quot;#SvgjsLinearGradient1529&quot;)" stroke-linecap="round" class="TopLeft"></path><path d="M40 77L-244 -207" stroke-width="8" stroke="url(&quot;#SvgjsLinearGradient1529&quot;)" stroke-linecap="round" class="TopLeft"></path><path d="M1428 377L1047 -4" stroke-width="10" stroke="url(&quot;#SvgjsLinearGradient1530&quot;)" stroke-linecap="round" class="BottomRight"></path><path d="M1376 294L1535 453" stroke-width="6" stroke="url(&quot;#SvgjsLinearGradient1529&quot;)" stroke-linecap="round" class="TopLeft"></path><path d="M619 474L874 729" stroke-width="8" stroke="url(&quot;#SvgjsLinearGradient1531&quot;)" stroke-linecap="round" class="BottomRight"></path><path d="M371 525L528 682" stroke-width="10" stroke="url(&quot;#SvgjsLinearGradient1531&quot;)" stroke-linecap="round" class="BottomRight"></path><path d="M442 225L618 401" stroke-width="10" stroke="url(&quot;#SvgjsLinearGradient1531&quot;)" stroke-linecap="round" class="BottomRight"></path><path d="M413 506L704 797" stroke-width="8" stroke="url(&quot;#SvgjsLinearGradient1531&quot;)" stroke-linecap="round" class="BottomRight"></path><path d="M614 165L380 -69" stroke-width="10" stroke="url(&quot;#SvgjsLinearGradient1530&quot;)" stroke-linecap="round" class="BottomRight"></path><path d="M670 16L998 344" stroke-width="6" stroke="url(&quot;#SvgjsLinearGradient1531&quot;)" stroke-linecap="round" class="BottomRight"></path><path d="M421 264L781 624" stroke-width="8" stroke="url(&quot;#SvgjsLinearGradient1528&quot;)" stroke-linecap="round" class="TopLeft"></path><path d="M791 306L1099 614" stroke-width="8" stroke="url(&quot;#SvgjsLinearGradient1531&quot;)" stroke-linecap="round" class="BottomRight"></path><path d="M1331 33L1150 -148" stroke-width="8" stroke="url(&quot;#SvgjsLinearGradient1528&quot;)" stroke-linecap="round" class="TopLeft"></path><path d="M752 408L946 602" stroke-width="6" stroke="url(&quot;#SvgjsLinearGradient1530&quot;)" stroke-linecap="round" class="BottomRight"></path><path d="M1357 140L1565 348" stroke-width="6" stroke="url(&quot;#SvgjsLinearGradient1529&quot;)" stroke-linecap="round" class="TopLeft"></path><path d="M1435 169L1647 381" stroke-width="6" stroke="url(&quot;#SvgjsLinearGradient1530&quot;)" stroke-linecap="round" class="BottomRight"></path><path d="M919 276L582 -61" stroke-width="10" stroke="url(&quot;#SvgjsLinearGradient1531&quot;)" stroke-linecap="round" class="BottomRight"></path><path d="M1253 390L1451 588" stroke-width="6" stroke="url(&quot;#SvgjsLinearGradient1531&quot;)" stroke-linecap="round" class="BottomRight"></path><path d="M789 73L458 -258" stroke-width="10" stroke="url(&quot;#SvgjsLinearGradient1529&quot;)" stroke-linecap="round" class="TopLeft"></path><path d="M476 344L168 36" stroke-width="6" stroke="url(&quot;#SvgjsLinearGradient1530&quot;)" stroke-linecap="round" class="BottomRight"></path><path d="M145 204L347 406" stroke-width="8" stroke="url(&quot;#SvgjsLinearGradient1529&quot;)" stroke-linecap="round" class="TopLeft"></path><path d="M1283 305L1106 128" stroke-width="8" stroke="url(&quot;#SvgjsLinearGradient1531&quot;)" stroke-linecap="round" class="BottomRight"></path><path d="M498 306L810 618" stroke-width="10" stroke="url(&quot;#SvgjsLinearGradient1531&quot;)" stroke-linecap="round" class="BottomRight"></path><path d="M975 477L1140 642" stroke-width="10" stroke="url(&quot;#SvgjsLinearGradient1529&quot;)" stroke-linecap="round" class="TopLeft"></path><path d="M504 132L242 -130" stroke-width="10" stroke="url(&quot;#SvgjsLinearGradient1530&quot;)" stroke-linecap="round" class="BottomRight"></path><path d="M666 282L252 -132" stroke-width="10" stroke="url(&quot;#SvgjsLinearGradient1528&quot;)" stroke-linecap="round" class="TopLeft"></path><path d="M1279 476L1585 782" stroke-width="10" stroke="url(&quot;#SvgjsLinearGradient1529&quot;)" stroke-linecap="round" class="TopLeft"></path><path d="M724 157L548 -19" stroke-width="6" stroke="url(&quot;#SvgjsLinearGradient1530&quot;)" stroke-linecap="round" class="BottomRight"></path><path d="M7 369L287 649" stroke-width="10" stroke="url(&quot;#SvgjsLinearGradient1528&quot;)" stroke-linecap="round" class="TopLeft"></path><path d="M968 274L1136 442" stroke-width="8" stroke="url(&quot;#SvgjsLinearGradient1528&quot;)" stroke-linecap="round" class="TopLeft"></path><path d="M1087 138L1372 423" stroke-width="8" stroke="url(&quot;#SvgjsLinearGradient1528&quot;)" stroke-linecap="round" class="TopLeft"></path><path d="M1294 18L969 -307" stroke-width="6" stroke="url(&quot;#SvgjsLinearGradient1528&quot;)" stroke-linecap="round" class="TopLeft"></path><path d="M677 350L928 601" stroke-width="8" stroke="url(&quot;#SvgjsLinearGradient1530&quot;)" stroke-linecap="round" class="BottomRight"></path><path d="M414 508L610 704" stroke-width="8" stroke="url(&quot;#SvgjsLinearGradient1530&quot;)" stroke-linecap="round" class="BottomRight"></path><path d="M170 40L525 395" stroke-width="10" stroke="url(&quot;#SvgjsLinearGradient1528&quot;)" stroke-linecap="round" class="TopLeft"></path><path d="M455 164L699 408" stroke-width="10" stroke="url(&quot;#SvgjsLinearGradient1529&quot;)" stroke-linecap="round" class="TopLeft"></path><path d="M483 482L130 129" stroke-width="8" stroke="url(&quot;#SvgjsLinearGradient1529&quot;)" stroke-linecap="round" class="TopLeft"></path></g><defs><mask id="SvgjsMask1526"><rect width="1440" height="560" fill="#ffffff"></rect></mask><linearGradient x1="0%" y1="50%" x2="100%" y2="50%" gradientUnits="userSpaceOnUse" id="SvgjsLinearGradient1527"><stop stop-color="#0e2a47" offset="0"></stop><stop stop-color="rgba(154, 42, 217, 1)" offset="1"></stop></linearGradient><linearGradient x1="100%" y1="100%" x2="0%" y2="0%" id="SvgjsLinearGradient1528"><stop stop-color="rgba(12, 182, 140, 0)" offset="0"></stop><stop stop-color="rgba(12, 182, 140, 1)" offset="1"></stop></linearGradient><linearGradient x1="100%" y1="100%" x2="0%" y2="0%" id="SvgjsLinearGradient1529"><stop stop-color="rgba(6, 24, 215, 0)" offset="0"></stop><stop stop-color="rgba(6, 24, 215, 1)" offset="1"></stop></linearGradient><linearGradient x1="0%" y1="0%" x2="100%" y2="100%" id="SvgjsLinearGradient1530"><stop stop-color="rgba(6, 24, 215, 0)" offset="0"></stop><stop stop-color="rgba(6, 24, 215, 1)" offset="1"></stop></linearGradient><linearGradient x1="0%" y1="0%" x2="100%" y2="100%" id="SvgjsLinearGradient1531"><stop stop-color="rgba(12, 182, 140, 0)" offset="0"></stop><stop stop-color="rgba(12, 182, 140, 1)" offset="1"></stop></linearGradient></defs></svg>